<?xml version="1.0" encoding="UTF-8"?>
<svg xmlns="http://www.w3.org/2000/svg" xmlns:xlink="http://www.w3.org/1999/xlink" width="150pt" height="74pt" viewBox="0 0 226 110" version="1.1">
<g id="surface1">
<path style=" stroke:none;fill-rule:nonzero;fill:rgb(100%,100%,100%);fill-opacity:1;" d="M 222.027344 61.652344 C 220.582031 60.5625 220.34375 60.394531 211.667969 57.539062 C 219.183594 55.691406 219.503906 55.492188 220.839844 54.617188 C 223.855469 52.574219 225.464844 49.179688 225.230469 45.503906 L 225.203125 45.105469 C 224.589844 39.207031 216.992188 28.082031 211.878906 25.582031 C 208.507812 23.972656 204.753906 24.199219 201.800781 26.183594 C 200.410156 27.105469 200.222656 27.230469 194.511719 35.027344 C 193.957031 25.917969 192.882812 9.851562 192.621094 8.347656 L 192.5625 8 L 192.480469 7.667969 C 191.503906 4.136719 188.734375 1.488281 185.066406 0.566406 C 178.949219 -0.957031 162.765625 3.605469 158.421875 8.078125 C 155.875 10.742188 154.894531 14.324219 155.773438 17.679688 L 155.953125 18.347656 L 156.253906 18.96875 C 156.667969 19.828125 157.761719 21.640625 167.15625 36.378906 L 170.617188 41.835938 C 162.207031 38.394531 161.875 38.382812 160.132812 38.367188 C 156.820312 38.222656 153.5 39.996094 151.5 43.128906 L 151.460938 43.191406 C 150.429688 44.851562 149.792969 47.113281 149.394531 49.480469 C 146.683594 45.828125 142.605469 42.898438 136.425781 41.6875 C 132.042969 40.808594 127.929688 41.335938 124.054688 42.902344 C 120.507812 40.640625 115.632812 40.375 111.554688 42.703125 C 110.296875 43.417969 109.351562 44.273438 108.613281 45.183594 L 108.613281 40.179688 L 108.226562 37.207031 L 108.105469 36.671875 C 107.285156 33.449219 104.851562 30.726562 101.59375 29.390625 L 101.5625 29.375 C 97.988281 27.933594 93.976562 28.277344 90.570312 30.316406 C 86.945312 32.457031 85.085938 36.011719 85.085938 40.875 L 85.085938 51.078125 C 83.796875 49.066406 82.199219 47.320312 80.3125 45.886719 C 75.21875 42.027344 68.390625 40.726562 60.574219 42.128906 C 56.046875 42.914062 52.257812 44.894531 49.253906 47.796875 C 49.207031 47.703125 49.15625 47.585938 49.109375 47.496094 C 47.582031 44.761719 45.109375 42.886719 41.941406 42.054688 C 36.648438 40.601562 29.929688 42.402344 27.160156 51.867188 C 27.160156 51.867188 26.710938 53.394531 26.09375 55.484375 C 24.878906 53.257812 21.734375 47.175781 21.601562 46.992188 C 18.769531 42.695312 13.089844 40.832031 8.015625 42.851562 C 3.109375 44.699219 0.269531 49.015625 0.269531 54.089844 C 0.269531 55.691406 0.546875 57.355469 1.128906 59.046875 L 1.273438 59.460938 C 1.273438 59.460938 11.355469 79.992188 14.269531 85.933594 C 9.582031 87.171875 6.242188 90.667969 5.703125 95.460938 C 5.644531 95.917969 5.617188 96.378906 5.617188 96.832031 C 5.617188 99.882812 6.882812 102.796875 9.203125 104.933594 C 12.730469 108.1875 18.207031 109.265625 24.640625 107.945312 C 31.625 106.574219 35.644531 102.359375 38.460938 93.425781 L 42.75 79.957031 C 44.144531 85.628906 46.683594 89.332031 49.089844 91.710938 C 52.554688 95.136719 58.894531 98.925781 69.394531 97.507812 C 77.195312 96.414062 82.59375 92.921875 85.511719 88.816406 L 85.699219 89.808594 C 86.53125 92.738281 88.789062 95.339844 91.824219 96.722656 C 95 98.191406 98.671875 98.167969 101.894531 96.65625 C 103.574219 95.925781 105 94.769531 106.109375 93.328125 L 106.109375 97.574219 C 106.109375 104.589844 110.167969 107.574219 112.589844 108.734375 C 115.746094 110.320312 119.527344 110.449219 122.820312 109.019531 C 125.929688 107.671875 128.238281 105.109375 129.144531 101.992188 L 129.285156 101.515625 L 129.707031 98.621094 C 129.707031 98.621094 129.707031 97.503906 129.707031 97.375 C 133.925781 97.808594 138.332031 97.121094 142.210938 95.109375 C 143.925781 94.21875 145.421875 93.144531 146.761719 91.914062 L 149.613281 91.914062 C 151.164062 92.730469 152.925781 93.238281 154.824219 93.238281 C 156.726562 93.238281 158.484375 92.730469 160.035156 91.914062 L 168.296875 91.914062 C 173.773438 94.992188 181.773438 97.328125 186.054688 96.59375 C 189.742188 95.941406 192.648438 93.566406 193.878906 90.234375 L 193.941406 90.070312 C 194.460938 88.554688 194.546875 88.273438 194.582031 79.71875 C 199.273438 87.296875 199.519531 87.496094 200.835938 88.535156 C 203.667969 90.746094 207.390625 91.230469 210.824219 89.847656 C 216.34375 87.628906 224.773438 76.910156 225.621094 71.027344 C 225.691406 70.515625 225.734375 69.996094 225.734375 69.488281 C 225.734375 66.410156 224.402344 63.554688 222.027344 61.652344 Z M 136.394531 41.679688 C 136.40625 41.6875 136.414062 41.6875 136.425781 41.6875 C 136.433594 41.695312 136.4375 41.695312 136.449219 41.695312 Z M 210.832031 89.847656 L 210.824219 89.847656 C 210.816406 89.847656 210.8125 89.855469 210.800781 89.859375 L 210.832031 89.847656 "/>
<path style="fill:none;stroke-width:0.145;stroke-linecap:round;stroke-linejoin:round;stroke:rgb(74.117647%,73.72549%,73.72549%);stroke-opacity:1;stroke-miterlimit:4;" d="M 0.000484722 0.000479326 C -0.388985 0.294125 -0.453195 0.339383 -2.791069 1.108756 C -0.765824 1.606586 -0.679509 1.660263 -0.319512 1.896022 C 0.493112 2.446476 0.926792 3.361094 0.863635 4.351491 L 0.856266 4.458846 C 0.691005 6.048112 -1.356345 9.045617 -2.734227 9.719213 C -3.64264 10.152841 -4.65421 10.091796 -5.449992 9.557129 C -5.824726 9.30874 -5.875251 9.27506 -7.414185 7.174281 C -7.563657 9.628699 -7.853128 13.957608 -7.923654 14.362819 L -7.939443 14.456491 L -7.961548 14.545953 C -8.224704 15.497408 -8.971013 16.210999 -9.959425 16.459388 C -11.607831 16.86986 -15.968844 15.640547 -17.13936 14.435441 C -17.82567 13.717639 -18.089878 12.752502 -17.853038 11.848409 L -17.804617 11.668433 L -17.723565 11.501086 C -17.611987 11.269537 -17.317253 10.78118 -14.785697 6.810118 L -13.853074 5.339784 C -16.119369 6.267031 -16.208842 6.270189 -16.678311 6.274399 C -17.570935 6.313341 -18.465664 5.835509 -19.004606 4.991408 L -19.015132 4.974568 C -19.293025 4.527258 -19.464602 3.917864 -19.571969 3.280052 C -20.302489 4.264134 -21.401427 5.053505 -23.066675 5.379778 C -24.247717 5.61659 -25.356128 5.474503 -26.400329 5.052453 C -27.356109 5.661847 -28.669782 5.733417 -29.768719 5.10613 C -30.107663 4.913523 -30.362398 4.683027 -30.561344 4.437796 L -30.561344 5.786041 L -30.665553 6.58699 L -30.698184 6.731181 C -30.919235 7.599489 -31.575019 8.333078 -32.452905 8.693031 L -32.461326 8.697241 C -33.424476 9.085611 -34.505518 8.992992 -35.423405 8.44359 C -36.400238 7.866823 -36.901286 6.909053 -36.901286 5.598697 L -36.901286 2.849582 C -37.248651 3.391616 -37.679174 3.862081 -38.18759 4.248347 C -39.560209 5.288211 -41.400193 5.638692 -43.506489 5.260847 C -44.726478 5.049295 -45.747522 4.515681 -46.556988 3.733677 C -46.56962 3.758937 -46.583304 3.790512 -46.595935 3.814719 C -47.00751 4.551465 -47.67382 5.056663 -48.527497 5.280844 C -49.953799 5.672372 -51.764309 5.187172 -52.510618 2.636978 C -52.510618 2.636978 -52.63167 2.225453 -52.797984 1.662368 C -53.12535 2.26229 -53.97271 3.901024 -54.008499 3.950491 C -54.77165 5.108235 -56.302163 5.610275 -57.669519 5.066135 C -58.991612 4.568305 -59.756868 3.405299 -59.756868 2.038109 C -59.756868 1.606586 -59.682132 1.158223 -59.525292 0.702493 L -59.486345 0.590929 C -59.486345 0.590929 -56.769527 -4.940982 -55.984271 -6.541826 C -57.247417 -6.875467 -58.147409 -7.817449 -58.292671 -9.10886 C -58.308461 -9.232002 -58.315829 -9.356196 -58.315829 -9.478286 C -58.315829 -10.300284 -57.974779 -11.085445 -57.349522 -11.661159 C -56.399004 -12.537887 -54.923228 -12.828376 -53.18956 -12.472632 C -51.307471 -12.103207 -50.224323 -10.967565 -49.465383 -8.560511 L -48.309604 -4.93151 C -47.933818 -6.459732 -47.249613 -7.457496 -46.601198 -8.098465 C -45.667522 -9.021503 -43.959117 -10.042423 -41.129669 -9.660367 C -39.027583 -9.365669 -37.572859 -8.424739 -36.78655 -7.318567 L -36.736024 -7.585901 C -36.511816 -8.375271 -35.9034 -9.076233 -35.085513 -9.448816 C -34.229731 -9.844554 -33.240267 -9.838239 -32.371853 -9.430923 C -31.919226 -9.234107 -31.535019 -8.922569 -31.236074 -8.534198 L -31.236074 -9.67826 C -31.236074 -11.56854 -30.1424 -12.372645 -29.489774 -12.685236 C -28.639256 -13.112549 -27.620318 -13.147281 -26.732957 -12.762068 C -25.89507 -12.398958 -25.27297 -11.708521 -25.028762 -10.868631 L -24.990868 -10.740227 L -24.877185 -9.960328 C -24.877185 -9.960328 -24.877185 -9.659315 -24.877185 -9.624582 C -23.740353 -9.741409 -22.552995 -9.55617 -21.507741 -9.014136 C -21.04564 -8.774167 -20.642486 -8.484731 -20.281437 -8.153195 L -19.513023 -8.153195 C -19.095132 -8.373167 -18.620399 -8.509991 -18.108825 -8.509991 C -17.596198 -8.509991 -17.122518 -8.373167 -16.704627 -8.153195 L -14.478331 -8.153195 C -13.002555 -8.982561 -10.846785 -9.611952 -9.693112 -9.414084 C -8.699436 -9.238317 -7.916286 -8.5984 -7.58471 -7.700623 L -7.567868 -7.656418 C -7.427869 -7.24805 -7.404711 -7.17227 -7.395238 -4.867307 C -6.131039 -6.909147 -6.064723 -6.962824 -5.70999 -7.242787 C -4.946839 -7.838499 -3.94369 -7.969009 -3.018435 -7.596426 C -1.53108 -6.998609 0.740478 -4.110564 0.968897 -2.525507 C 0.987844 -2.387631 0.999423 -2.247649 0.999423 -2.110825 C 0.999423 -1.281459 0.640479 -0.512085 0.000484722 0.000479326 Z M 0.000484722 0.000479326 " transform="matrix(3.710971,0,0,-3.711421,222.025545,61.654123)"/>
<path style="fill:none;stroke-width:0.145;stroke-linecap:round;stroke-linejoin:round;stroke:rgb(74.117647%,73.72549%,73.72549%);stroke-opacity:1;stroke-miterlimit:4;" d="M -0.0000956165 -0.000116559 C 0.00411487 -0.00222155 0.00516749 -0.00222155 0.00832536 -0.00222155 C 0.0114832 -0.00432654 0.0114832 -0.00432654 0.0156937 -0.00432654 Z M -0.0000956165 -0.000116559 " transform="matrix(3.710971,0,0,-3.711421,136.394886,41.679255)"/>
<path style="fill:none;stroke-width:0.145;stroke-linecap:round;stroke-linejoin:round;stroke:rgb(74.117647%,73.72549%,73.72549%);stroke-opacity:1;stroke-miterlimit:4;" d="M -0.00027742 -0.000425603 L -0.00343529 -0.000425603 C -0.00448791 -0.000425603 -0.00554053 -0.00253059 -0.0086984 -0.00358309 Z M -0.00027742 -0.000425603 " transform="matrix(3.710971,0,0,-3.711421,210.836967,89.846077)"/>
<path style=" stroke:none;fill-rule:nonzero;fill:rgb(91.372549%,91.372549%,91.372549%);fill-opacity:1;" d="M 156.386719 49.769531 C 155.046875 51.914062 154.484375 58.65625 154.949219 63.136719 C 155.109375 64.613281 155.371094 65.84375 155.769531 66.574219 C 156.304688 67.597656 157.203125 68.203125 158.226562 68.238281 C 158.875 68.273438 159.289062 68.164062 171.636719 64.179688 C 171.636719 64.179688 177.125 62.4375 177.15625 62.425781 C 178.515625 62.074219 179.441406 60.820312 179.53125 59.210938 C 179.621094 57.558594 178.761719 56.109375 177.367188 55.582031 C 177.367188 55.582031 173.492188 54 173.492188 54 C 160.214844 48.523438 159.625 48.316406 158.949219 48.308594 C 157.929688 48.257812 157.019531 48.78125 156.386719 49.769531 "/>
<path style=" stroke:none;fill-rule:nonzero;fill:rgb(91.372549%,91.372549%,91.372549%);fill-opacity:1;" d="M 186.070312 90.566406 C 186.289062 89.941406 186.3125 89.515625 186.34375 76.539062 C 186.34375 76.539062 186.378906 70.804688 186.390625 70.742188 C 186.472656 69.347656 185.566406 68.0625 184.074219 67.488281 C 182.539062 66.894531 180.890625 67.257812 179.957031 68.417969 C 179.957031 68.417969 177.257812 71.621094 177.246094 71.625 C 167.949219 82.558594 167.558594 83.054688 167.335938 83.707031 C 167.195312 84.085938 167.140625 84.488281 167.183594 84.894531 C 167.246094 85.46875 167.5 86.054688 167.941406 86.574219 C 170.09375 89.144531 180.4375 92.949219 183.730469 92.382812 C 184.878906 92.175781 185.71875 91.523438 186.070312 90.566406 "/>
<path style=" stroke:none;fill-rule:nonzero;fill:rgb(91.372549%,91.372549%,91.372549%);fill-opacity:1;" d="M 207.035156 86.050781 C 210.160156 84.804688 216.96875 76.152344 217.441406 72.824219 C 217.605469 71.664062 217.246094 70.667969 216.445312 70.027344 C 215.929688 69.632812 215.515625 69.480469 203.183594 65.429688 C 203.183594 65.429688 197.761719 63.640625 197.703125 63.609375 C 196.386719 63.097656 194.894531 63.570312 193.890625 64.8125 C 192.84375 66.085938 192.679688 67.757812 193.523438 69.03125 L 195.699219 72.578125 C 203.027344 84.484375 203.582031 85.320312 204.109375 85.738281 C 204.925781 86.371094 205.96875 86.488281 207.035156 86.050781 "/>
<path style=" stroke:none;fill-rule:nonzero;fill:rgb(91.372549%,91.372549%,91.372549%);fill-opacity:1;" d="M 200.671875 55.40625 C 214.699219 52.015625 215.238281 51.835938 215.792969 51.472656 C 216.644531 50.894531 217.0625 49.945312 216.992188 48.769531 C 216.992188 48.726562 216.996094 48.695312 216.992188 48.652344 C 216.628906 45.210938 210.597656 36.25 207.628906 34.792969 C 206.570312 34.292969 205.515625 34.328125 204.648438 34.90625 C 204.105469 35.269531 203.699219 35.789062 196.195312 46.070312 C 196.195312 46.070312 192.800781 50.695312 192.761719 50.734375 C 191.867188 51.820312 191.855469 53.382812 192.722656 54.722656 C 193.625 56.105469 195.160156 56.78125 196.566406 56.390625 C 196.566406 56.390625 196.5 56.488281 196.492188 56.511719 C 197.175781 56.246094 198.421875 55.941406 200.671875 55.40625 "/>
<path style=" stroke:none;fill-rule:nonzero;fill:rgb(91.372549%,91.372549%,91.372549%);fill-opacity:1;" d="M 186.585938 43.824219 C 186.339844 38.265625 184.675781 13.511719 184.476562 12.371094 C 184.191406 11.324219 183.378906 10.585938 182.210938 10.292969 C 178.636719 9.402344 164.945312 13.242188 162.414062 15.859375 C 161.601562 16.707031 161.300781 17.753906 161.539062 18.683594 C 161.9375 19.5 178.894531 46.179688 178.894531 46.179688 C 181.402344 50.25 183.445312 49.613281 184.113281 49.40625 C 184.78125 49.199219 186.816406 48.5625 186.585938 43.824219 "/>
<path style=" stroke:none;fill-rule:nonzero;fill:rgb(74.901961%,14.509804%,9.803922%);fill-opacity:1;" d="M 157.507812 46.964844 C 156.171875 49.105469 155.605469 55.847656 156.070312 60.324219 C 156.234375 61.800781 156.5 63.035156 156.890625 63.769531 C 157.425781 64.785156 158.324219 65.390625 159.347656 65.429688 C 160.003906 65.460938 160.414062 65.351562 172.761719 61.378906 C 172.761719 61.378906 178.25 59.628906 178.273438 59.617188 C 179.640625 59.269531 180.5625 58.007812 180.652344 56.402344 C 180.742188 54.753906 179.890625 53.300781 178.488281 52.773438 C 178.488281 52.773438 174.617188 51.195312 174.609375 51.195312 C 161.339844 45.722656 160.742188 45.503906 160.074219 45.5 C 159.050781 45.457031 158.140625 45.972656 157.507812 46.964844 "/>
<path style=" stroke:none;fill-rule:nonzero;fill:rgb(74.901961%,14.509804%,9.803922%);fill-opacity:1;" d="M 187.195312 87.753906 C 187.410156 87.128906 187.4375 86.703125 187.472656 73.726562 C 187.472656 73.726562 187.503906 67.992188 187.507812 67.9375 C 187.59375 66.53125 186.6875 65.25 185.199219 64.679688 C 183.664062 64.089844 182.015625 64.453125 181.085938 65.605469 C 181.085938 65.605469 178.378906 68.820312 178.371094 68.820312 C 169.074219 79.742188 168.683594 80.25 168.457031 80.894531 C 168.320312 81.273438 168.265625 81.679688 168.308594 82.085938 C 168.363281 82.664062 168.628906 83.234375 169.0625 83.769531 C 171.21875 86.332031 181.558594 90.136719 184.859375 89.570312 C 186.007812 89.363281 186.84375 88.71875 187.195312 87.753906 "/>
<path style=" stroke:none;fill-rule:nonzero;fill:rgb(74.901961%,14.509804%,9.803922%);fill-opacity:1;" d="M 208.167969 83.234375 C 211.285156 81.992188 218.085938 73.339844 218.5625 70.011719 C 218.730469 68.855469 218.367188 67.855469 217.570312 67.21875 C 217.046875 66.824219 216.648438 66.671875 204.304688 62.617188 C 204.304688 62.617188 198.890625 60.832031 198.820312 60.796875 C 197.511719 60.289062 196.015625 60.757812 195.007812 62 C 193.964844 63.273438 193.808594 64.953125 194.640625 66.222656 L 196.820312 69.769531 C 204.144531 81.667969 204.707031 82.511719 205.234375 82.925781 C 206.050781 83.566406 207.089844 83.671875 208.167969 83.234375 "/>
<path style=" stroke:none;fill-rule:nonzero;fill:rgb(74.901961%,14.509804%,9.803922%);fill-opacity:1;" d="M 201.789062 52.601562 C 215.816406 49.203125 216.359375 49.023438 216.910156 48.660156 C 217.761719 48.089844 218.1875 47.132812 218.113281 45.964844 C 218.113281 45.929688 218.121094 45.886719 218.113281 45.847656 C 217.753906 42.402344 211.71875 33.445312 208.746094 31.988281 C 207.695312 31.484375 206.640625 31.515625 205.765625 32.105469 C 205.222656 32.457031 204.824219 32.992188 197.3125 43.265625 C 197.3125 43.265625 193.921875 47.882812 193.882812 47.929688 C 192.988281 49.015625 192.972656 50.574219 193.847656 51.910156 C 194.753906 53.296875 196.28125 53.972656 197.683594 53.582031 C 197.683594 53.582031 197.628906 53.683594 197.613281 53.699219 C 198.304688 53.441406 199.539062 53.136719 201.789062 52.601562 "/>
<path style=" stroke:none;fill-rule:nonzero;fill:rgb(74.901961%,14.509804%,9.803922%);fill-opacity:1;" d="M 187.710938 41.019531 C 187.46875 35.457031 185.796875 10.703125 185.597656 9.558594 C 185.316406 8.519531 184.503906 7.777344 183.339844 7.480469 C 179.757812 6.59375 166.070312 10.429688 163.535156 13.046875 C 162.71875 13.894531 162.421875 14.941406 162.664062 15.871094 C 163.066406 16.691406 180.019531 43.371094 180.019531 43.371094 C 182.527344 47.4375 184.570312 46.804688 185.242188 46.59375 C 185.90625 46.390625 187.941406 45.757812 187.710938 41.019531 "/>
<path style=" stroke:none;fill-rule:nonzero;fill:rgb(13.72549%,12.156863%,12.54902%);fill-opacity:1;" d="M 14.03125 99.695312 C 15.796875 101.332031 19.144531 101.796875 23.210938 100.96875 C 27.019531 100.214844 29.386719 98.511719 31.660156 91.277344 L 42.988281 55.679688 C 43.574219 53.789062 43.53125 52.148438 42.859375 50.933594 C 42.3125 49.953125 41.40625 49.289062 40.121094 48.945312 C 38.101562 48.394531 35.582031 48.449219 33.996094 53.875 L 28.050781 74.070312 C 28.050781 74.070312 15.941406 51.191406 15.933594 51.1875 C 15.167969 49.660156 12.925781 48.5625 10.644531 49.46875 C 7.667969 50.601562 6.679688 53.277344 7.867188 56.726562 C 7.867188 56.726562 22.59375 86.703125 22.628906 86.785156 C 22.628906 86.785156 23.027344 87.851562 23.027344 88.027344 C 23.027344 88.027344 23.160156 88.839844 23.160156 88.871094 C 23.132812 90.023438 22.746094 90.996094 22.054688 91.644531 C 21.378906 92.285156 20.433594 92.617188 19.332031 92.574219 C 19.332031 92.574219 17.035156 92.523438 16.859375 92.523438 C 14.5 92.8125 13.015625 94.167969 12.777344 96.257812 C 12.613281 97.605469 13.046875 98.789062 14.03125 99.695312 "/>
<path style=" stroke:none;fill-rule:nonzero;fill:rgb(13.72549%,12.156863%,12.54902%);fill-opacity:1;" d="M 72.066406 65.941406 L 56.292969 65.941406 C 55.867188 65.628906 55.660156 65.105469 55.976562 63.53125 C 56.179688 62.703125 56.394531 61.960938 57.023438 60.921875 C 57.230469 60.609375 57.441406 60.292969 57.644531 59.972656 C 58.796875 58.515625 60.359375 57.578125 62.136719 57.164062 C 67.683594 55.808594 71.550781 58.625 72.175781 63.433594 C 72.476562 65.527344 72.28125 65.941406 72.066406 65.941406 Z M 81.757812 63.195312 C 81.25 58.050781 79.265625 54.035156 76.011719 51.574219 C 72.542969 48.941406 67.636719 48.105469 61.832031 49.144531 C 54.550781 50.40625 50.179688 55.609375 49.175781 64.210938 C 47.945312 74.496094 49.636719 82.246094 54.085938 86.628906 C 57.441406 89.941406 62.402344 91.261719 68.4375 90.445312 C 77.042969 89.234375 80.914062 84.507812 80.914062 81.519531 C 80.914062 79.324219 79.582031 77.59375 77.632812 77.332031 C 76.515625 77.109375 75.570312 77.332031 73.488281 79.199219 C 70.480469 81.816406 66.996094 82.871094 63.910156 82.089844 C 61.554688 81.492188 59.71875 79.871094 58.886719 77.648438 C 58.886719 77.648438 58.515625 76.175781 58.539062 76.339844 C 58.285156 75.015625 58.171875 73.703125 58.988281 73.167969 L 59.207031 73.019531 L 78.109375 73.019531 C 79.855469 73.019531 80.738281 72.792969 81.246094 72.242188 C 82.285156 71.089844 82.203125 67.792969 81.757812 63.195312 "/>
<path style=" stroke:none;fill-rule:nonzero;fill:rgb(13.72549%,12.156863%,12.54902%);fill-opacity:1;" d="M 98.894531 35.988281 C 97.398438 35.382812 95.710938 35.542969 94.230469 36.425781 C 92.804688 37.269531 92.210938 38.554688 92.210938 40.875 L 92.210938 85.953125 C 92.210938 85.953125 92.460938 87.5625 92.488281 87.632812 C 92.804688 88.757812 93.636719 89.714844 94.792969 90.238281 C 96.070312 90.832031 97.546875 90.820312 98.871094 90.203125 C 100.511719 89.488281 101.480469 87.84375 101.480469 85.808594 L 101.480469 40.644531 C 101.480469 40.644531 101.195312 38.460938 101.195312 38.421875 C 100.933594 37.375 100.066406 36.46875 98.894531 35.988281 "/>
<path style=" stroke:none;fill-rule:nonzero;fill:rgb(13.72549%,12.156863%,12.54902%);fill-opacity:1;" d="M 134.566406 81.777344 C 128.324219 81.777344 127.328125 76.234375 127.132812 72.054688 C 127.121094 72.042969 127.050781 69.605469 127.050781 69.605469 C 127.050781 69.605469 127.121094 67.792969 127.121094 67.722656 C 127.527344 60.484375 129.019531 57.632812 132.839844 56.835938 C 135.402344 56.242188 137.363281 56.53125 138.832031 57.714844 C 141.042969 59.492188 142.011719 63.257812 141.925781 69.539062 C 141.859375 76.890625 140.582031 81.777344 134.566406 81.777344 Z M 135.027344 48.679688 C 130.847656 47.824219 127.269531 48.542969 123.828125 50.871094 C 123.828125 50.871094 123.445312 51.183594 123.296875 51.273438 L 122.988281 51.429688 L 122.042969 51.851562 L 121.777344 50.792969 L 121.550781 50.414062 L 121.472656 50.175781 L 121.445312 50.105469 C 121.445312 50.105469 121.21875 49.796875 121.183594 49.746094 C 120.195312 48.210938 117.511719 47.507812 115.09375 48.886719 C 113.910156 49.558594 113.230469 50.503906 113.230469 53.328125 L 113.230469 97.574219 C 113.230469 99.996094 113.992188 101.503906 115.652344 102.296875 C 117.058594 103.003906 118.632812 103.058594 119.988281 102.476562 C 121.140625 101.972656 121.984375 101.082031 122.300781 99.996094 L 122.578125 98.101562 L 122.578125 90.445312 L 122.496094 89.210938 L 122.53125 88.847656 L 122.578125 88.671875 L 123.035156 87.214844 L 124.417969 88.136719 C 124.417969 88.136719 124.769531 88.363281 124.917969 88.519531 L 125.332031 88.796875 C 125.335938 88.800781 125.816406 89.078125 125.816406 89.078125 C 125.824219 89.078125 126.261719 89.292969 126.261719 89.292969 C 129.972656 91.042969 134.9375 90.839844 138.933594 88.78125 C 143.964844 86.152344 146.453125 81.492188 147.027344 73.664062 C 148.230469 58.019531 144.628906 50.546875 135.027344 48.679688 "/>
<path style=" stroke:none;fill-rule:nonzero;fill:rgb(13.72549%,12.156863%,12.54902%);fill-opacity:1;" d="M 154.421875 85.238281 L 154.9375 85.238281 C 155.359375 85.238281 155.75 85.21875 155.75 84.746094 C 155.75 84.324219 155.390625 84.277344 155.070312 84.277344 L 154.421875 84.277344 Z M 154 83.898438 L 155.105469 83.898438 C 155.828125 83.898438 156.167969 84.164062 156.167969 84.765625 C 156.167969 85.308594 155.820312 85.535156 155.367188 85.582031 L 156.242188 86.914062 L 155.785156 86.914062 L 154.960938 85.617188 L 154.421875 85.617188 L 154.421875 86.914062 L 154 86.914062 Z M 154.976562 87.613281 C 156.195312 87.613281 157.179688 86.652344 157.179688 85.378906 C 157.179688 84.125 156.195312 83.160156 154.976562 83.160156 C 153.75 83.160156 152.769531 84.125 152.769531 85.402344 C 152.769531 86.652344 153.75 87.613281 154.976562 87.613281 Z M 154.976562 82.785156 C 156.402344 82.785156 157.597656 83.90625 157.597656 85.378906 C 157.597656 86.875 156.402344 87.992188 154.976562 87.992188 C 153.546875 87.992188 152.351562 86.875 152.351562 85.402344 C 152.351562 83.90625 153.546875 82.785156 154.976562 82.785156 "/>
</g>
</svg>
